Screens: http://bayimg.com/NapmeAaDf

General
Complete name: Tasha_Reign - Two lovers.wmv
Format: Windows Media
File size: 604 MiB
Duration: 32mn 1s
Overall bit rate mode: Constant
Overall bit rate: 2 636 Kbps
Maximum Overall bit rate: 2 651 Kbps
Encoded date: UTC 2011-11-30 04:32:15.257

Video
ID: 2
Format: VC-1
Format profile: MP@HL
Codec ID: WMV3
Codec ID/Info: Windows Media Video 9
Codec ID/Hint: WMV3
Description of the codec: Windows Media Video 9 - Professional
Duration: 32mn 1s
Bit rate mode: Constant
Bit rate: 2 500 Kbps
Width: 1 280 pixels
Height: 720 pixels
Display aspect ratio: 16:9
Frame rate: 23.976 fps
Nominal frame rate: 29.970 fps
Bit depth: 8 bits
Scan type: Progressive
Compression mode: Lossy
Bits/(Pixel*Frame): 0.113
Stream size: 573 MiB (95%)

Audio
ID: 1
Format: WMA
Format version: Version 2
Codec ID: 161
Codec ID/Info: Windows Media Audio
Description of the codec: Windows Media Audio 9.2 - 128 kbps, 44 kHz, stereo 2-pass CBR
Duration: 32mn 1s
Bit rate mode: Constant
Bit rate: 128 Kbps
Channel(s): 2 channels
Sampling rate: 44.1 KHz
Bit depth: 16 bits
Stream size: 29.3 MiB (5%)